<?xml version="1.0" encoding="UTF-8" standalone="no"?>
<!-- Uploaded to: SVG Repo, www.svgrepo.com, Generator: SVG Repo Mixer Tools -->

<svg
   width="930"
   height="930"
   viewBox="0 0 23.25 23.25"
   version="1.1"
   id="svg1"
   sodipodi:docname="menu_music.svg"
   inkscape:version="1.4.3 (0d15f75042, 2025-12-25)"
   xmlns:inkscape="http://www.inkscape.org/namespaces/inkscape"
   xmlns:sodipodi="http://sodipodi.sourceforge.net/DTD/sodipodi-0.dtd"
   xmlns="http://www.w3.org/2000/svg"
   xmlns:svg="http://www.w3.org/2000/svg"
   xmlns:rdf="http://www.w3.org/1999/02/22-rdf-syntax-ns#"
   xmlns:cc="http://creativecommons.org/ns#"
   xmlns:dc="http://purl.org/dc/elements/1.1/">
  <sodipodi:namedview
     id="namedview1"
     pagecolor="#ffffff"
     bordercolor="#cccccc"
     borderopacity="1"
     inkscape:showpageshadow="0"
     inkscape:pageopacity="1"
     inkscape:pagecheckerboard="0"
     inkscape:deskcolor="#d1d1d1"
     inkscape:zoom="1.0023239"
     inkscape:cx="373.13288"
     inkscape:cy="460.92885"
     inkscape:window-width="2560"
     inkscape:window-height="1362"
     inkscape:window-x="0"
     inkscape:window-y="0"
     inkscape:window-maximized="1"
     inkscape:current-layer="svg1" />
  <title
     id="title1">music [#996]</title>
  <desc
     id="desc1">Created with Sketch.</desc>
  <defs
     id="defs1" />
  <g
     id="music_icon"
     stroke="none"
     stroke-width="1"
     fill="none"
     fill-rule="evenodd"
     style="fill:#ffca44;fill-opacity:1;stroke:#000000;stroke-width:0.198425;stroke-dasharray:none;stroke-opacity:1"
     transform="matrix(0.99017621,0,0,0.99017621,1.7232379,1.7232379)">
    <path
       d="m 184,3639 v 16 c 0,2.209 -1.78516,4 -3.9966,4 -2.21044,0 -3.9956,-1.791 -3.9956,-4 0,-2.209 1.78717,-4 3.9986,-4 0.72848,0 0.99165,0.195 1.9923,0.535 V 3641 h -10.00651 v 14 c 0,2.209 -1.78516,4 -3.99659,4 -2.21044,0 -3.9956,-1.791 -3.9956,-4 0,-2.209 1.78716,-4 3.9986,-4 0.72847,0 0.99164,0.195 1.99229,0.535 V 3639 Z"
       id="music"
       transform="translate(-164,-3639)"
       style="fill:#ffca44;fill-opacity:1;stroke:#000000;stroke-width:0.198425;stroke-dasharray:none;stroke-opacity:1" />
  </g>
  <metadata
     id="metadata1">
    <rdf:RDF>
      <cc:Work
         rdf:about="">
        <dc:title>music [#996]</dc:title>
      </cc:Work>
    </rdf:RDF>
  </metadata>
</svg>
