<?xml version="1.0" encoding="UTF-8" standalone="no"?>
<!-- Created with Inkscape (http://www.inkscape.org/) -->

<svg
   width="85mm"
   height="85mm"
   viewBox="0 0 85 85"
   version="1.1"
   id="svg1"
   xml:space="preserve"
   inkscape:version="1.4.3 (0d15f75042, 2025-12-25)"
   sodipodi:docname="wifibox.svg"
   xmlns:inkscape="http://www.inkscape.org/namespaces/inkscape"
   xmlns:sodipodi="http://sodipodi.sourceforge.net/DTD/sodipodi-0.dtd"
   xmlns="http://www.w3.org/2000/svg"
   xmlns:svg="http://www.w3.org/2000/svg"
   xmlns:rdf="http://www.w3.org/1999/02/22-rdf-syntax-ns#"
   xmlns:cc="http://creativecommons.org/ns#"><sodipodi:namedview
     id="namedview1"
     pagecolor="#000000"
     bordercolor="#cccccc"
     borderopacity="1"
     inkscape:showpageshadow="0"
     inkscape:pageopacity="1"
     inkscape:pagecheckerboard="0"
     inkscape:deskcolor="#d1d1d1"
     inkscape:document-units="mm"
     inkscape:zoom="1.0102273"
     inkscape:cx="-10.888639"
     inkscape:cy="195.9955"
     inkscape:window-width="2560"
     inkscape:window-height="1362"
     inkscape:window-x="0"
     inkscape:window-y="0"
     inkscape:window-maximized="1"
     inkscape:current-layer="layer1" /><defs
     id="defs1" /><g
     inkscape:label="Wifi Box"
     inkscape:groupmode="layer"
     id="layer1"
     transform="translate(-62.5,-106)"><rect
       style="fill:#ffffff;fill-opacity:0;fill-rule:evenodd;stroke:#ffffff;stroke-width:5;stroke-linecap:round;stroke-dasharray:none;stroke-opacity:1"
       id="box"
       width="80"
       height="80"
       x="65"
       y="108.5"
       rx="5"
       ry="5" /><g
       style="fill:#ffffff"
       id="wifi"
       transform="matrix(0.18656755,0,0,0.18656755,70.868405,116.53907)"><circle
         cx="182.94501"
         cy="286.681"
         r="41.493999"
         id="wificircle"
         style="fill:#ffffff" /><path
         d="m 182.946,176.029 c -35.658,0 -69.337,17.345 -90.09,46.398 -5.921,8.288 -4.001,19.806 4.286,25.726 3.249,2.321 6.994,3.438 10.704,3.438 5.754,0 11.423,-2.686 15.021,-7.724 13.846,-19.383 36.305,-30.954 60.078,-30.954 23.775,0 46.233,11.571 60.077,30.953 5.919,8.286 17.437,10.209 25.726,4.288 8.288,-5.92 10.208,-17.438 4.288,-25.726 -20.751,-29.055 -54.43,-46.399 -90.09,-46.399 z"
         id="innerarch"
         style="fill:#ffffff" /><path
         d="m 182.946,106.873 c -50.938,0 -99.694,21.749 -133.77,59.67 -6.807,7.576 -6.185,19.236 1.392,26.044 3.523,3.166 7.929,4.725 12.32,4.725 5.051,-0.001 10.082,-2.063 13.723,-6.116 27.091,-30.148 65.849,-47.439 106.336,-47.439 40.487,0 79.246,17.291 106.338,47.438 6.808,7.576 18.468,8.198 26.043,1.391 7.576,-6.808 8.198,-18.468 1.391,-26.043 -34.078,-37.922 -82.836,-59.67 -133.773,-59.67 z"
         id="middlearch"
         style="fill:#ffffff" /><path
         d="M 360.611,112.293 C 313.402,64.201 250.306,37.716 182.946,37.716 c -67.357,0 -130.453,26.485 -177.664,74.579 -7.135,7.269 -7.027,18.944 0.241,26.079 3.59,3.524 8.255,5.282 12.918,5.281 4.776,0 9.551,-1.845 13.161,-5.522 40.22,-40.971 93.968,-63.534 151.344,-63.534 57.379,0 111.127,22.563 151.343,63.532 7.136,7.269 18.812,7.376 26.08,0.242 7.268,-7.135 7.376,-18.811 0.242,-26.08 z"
         id="outerarch"
         style="fill:#ffffff" /></g></g><metadata
     id="metadata13"><rdf:RDF><cc:Work
         rdf:about=""><cc:license
           rdf:resource="http://creativecommons.org/licenses/by-sa/4.0/" /></cc:Work><cc:License
         rdf:about="http://creativecommons.org/licenses/by-sa/4.0/"><cc:permits
           rdf:resource="http://creativecommons.org/ns#Reproduction" /><cc:permits
           rdf:resource="http://creativecommons.org/ns#Distribution" /><cc:requires
           rdf:resource="http://creativecommons.org/ns#Notice" /><cc:requires
           rdf:resource="http://creativecommons.org/ns#Attribution" /><cc:permits
           rdf:resource="http://creativecommons.org/ns#DerivativeWorks" /><cc:requires
           rdf:resource="http://creativecommons.org/ns#ShareAlike" /></cc:License></rdf:RDF></metadata></svg>
