<?xml version="1.0" encoding="UTF-8" standalone="no"?>
<!-- Created with Inkscape (http://www.inkscape.org/) -->

<svg
   width="210.00029mm"
   height="52.500187mm"
   viewBox="0 0 210.00029 52.500187"
   version="1.1"
   id="svg1"
   inkscape:version="1.4.3 (0d15f75042, 2025-12-25)"
   sodipodi:docname="unlock_slider_bg_v2_path.svg"
   xmlns:inkscape="http://www.inkscape.org/namespaces/inkscape"
   xmlns:sodipodi="http://sodipodi.sourceforge.net/DTD/sodipodi-0.dtd"
   xmlns="http://www.w3.org/2000/svg"
   xmlns:svg="http://www.w3.org/2000/svg">
  <sodipodi:namedview
     id="namedview1"
     pagecolor="#ffffff"
     bordercolor="#cccccc"
     borderopacity="1"
     inkscape:showpageshadow="0"
     inkscape:pageopacity="1"
     inkscape:pagecheckerboard="0"
     inkscape:deskcolor="#d1d1d1"
     inkscape:document-units="mm"
     inkscape:zoom="1.4286771"
     inkscape:cx="270.87996"
     inkscape:cy="99.392648"
     inkscape:window-width="2560"
     inkscape:window-height="1362"
     inkscape:window-x="0"
     inkscape:window-y="0"
     inkscape:window-maximized="1"
     inkscape:current-layer="layer1" />
  <defs
     id="defs1">
    <inkscape:path-effect
       effect="fillet_chamfer"
       id="path-effect1"
       is_visible="true"
       lpeversion="1"
       nodesatellites_param="F,0,0,1,0,0,0,1 @ F,0,0,1,0,0,0,1 @ F,0,0,1,0,0,0,1 @ F,0,0,1,0,0,0,1"
       radius="0"
       unit="px"
       method="auto"
       mode="F"
       chamfer_steps="1"
       flexible="false"
       use_knot_distance="true"
       apply_no_radius="true"
       apply_with_radius="true"
       only_selected="false"
       hide_knots="false" />
  </defs>
  <g
     inkscape:label="Layer 1"
     inkscape:groupmode="layer"
     id="layer1"
     transform="translate(1.449585e-4,-122.24991)">
    <g
       id="slider_bg">
      <rect
         style="opacity:0.800259;fill:#212121;fill-opacity:1;fill-rule:evenodd;stroke:none;stroke-width:3.34092;stroke-linecap:round;stroke-linejoin:round"
         id="bg_rect"
         width="210.00029"
         height="52.500187"
         x="-0.0001449585"
         y="122.24991"
         sodipodi:type="rect"
         ry="25.05691"
         rx="25.05691" />
      <path
         sodipodi:type="star"
         style="opacity:1;fill:#ffffff;fill-opacity:1;fill-rule:evenodd;stroke:none;stroke-width:2;stroke-linecap:round;stroke-linejoin:round"
         id="arrow"
         inkscape:flatsided="false"
         sodipodi:sides="3"
         sodipodi:cx="87.041481"
         sodipodi:cy="67.410843"
         sodipodi:r1="19.417196"
         sodipodi:r2="9.7085981"
         sodipodi:arg1="0.52359878"
         sodipodi:arg2="1.5707963"
         inkscape:rounded="0"
         inkscape:randomized="0"
         d="m 103.85727,77.119441 -16.815789,0 -16.815785,0 8.407892,-14.562897 8.407893,-14.562897 8.407893,14.562897 z"
         transform="matrix(0,-0.65861223,0.65861223,0,103.84253,205.82658)"
         inkscape:transform-center-x="3.1970991"
         inkscape:transform-center-y="6.1763998e-06" />
      <path
         d="m 25.04771,154.82337 q -1.47189,0 -2.532638,-0.50159 -1.060748,-0.5016 -1.636348,-1.439 -0.575599,-0.93741 -0.575599,-2.2284 h 1.825473 q 0.0082,0.80584 0.353583,1.38967 0.345359,0.5756 0.994965,0.87984 0.657828,0.30425 1.570564,0.30425 0.838731,0 1.447222,-0.23847 0.616714,-0.23846 0.962074,-0.67427 0.34536,-0.44403 0.34536,-1.0443 0,-0.4687 -0.238463,-0.81406 -0.23024,-0.35359 -0.748279,-0.61672 -0.509817,-0.26313 -1.364994,-0.46048 l -1.340325,-0.32069 q -1.858364,-0.43581 -2.713541,-1.23343 -0.846954,-0.79761 -0.846954,-2.07215 0,-1.0772 0.542709,-1.87482 0.542708,-0.80583 1.52945,-1.24987 0.986742,-0.45226 2.294176,-0.45226 1.323879,0 2.294175,0.46871 0.970297,0.4687 1.504782,1.3321 0.542709,0.8634 0.583823,2.06393 h -1.767913 q -0.06578,-1.06074 -0.772948,-1.66101 -0.707166,-0.60849 -1.866588,-0.60849 -0.731834,0 -1.307433,0.24668 -0.567377,0.23847 -0.896291,0.66605 -0.320691,0.41937 -0.320691,0.97852 0,0.44404 0.238462,0.77295 0.238463,0.32892 0.74828,0.5756 0.51804,0.24669 1.35677,0.45226 l 1.32388,0.31247 q 0.920959,0.22201 1.595233,0.53448 0.682497,0.31247 1.118308,0.73184 0.444034,0.41114 0.657828,0.94562 0.222017,0.52627 0.222017,1.18409 0,1.10187 -0.567377,1.92415 -0.567377,0.82229 -1.595233,1.27454 -1.027857,0.45226 -2.417519,0.45226 z m 8.59288,-0.19735 q -1.29921,0 -1.858364,-0.47692 -0.559154,-0.48515 -0.559154,-1.61168 v -10.16345 h 1.735022 v 9.99077 q 0,0.50159 0.17268,0.67427 0.17268,0.16446 0.666051,0.16446 0.074,0 0.17268,0 0.09867,0 0.172679,0 v 1.42255 q -0.123342,0 -0.254908,0 -0.123343,0 -0.246686,0 z m 1.693907,0 v -8.68333 h 1.735022 v 8.68333 z m 0.8634,-10.17989 q -0.46048,0 -0.781171,-0.30424 -0.312468,-0.31247 -0.312468,-0.75651 0,-0.45225 0.312468,-0.7565 0.320691,-0.31247 0.781171,-0.31247 0.46048,0 0.781171,0.31247 0.320691,0.30425 0.320691,0.7565 0,0.44404 -0.320691,0.75651 -0.320691,0.30424 -0.781171,0.30424 z m 6.167139,10.35257 q -1.126531,0 -1.981708,-0.56737 -0.846953,-0.5756 -1.315656,-1.58701 -0.468702,-1.01964 -0.468702,-2.35996 0,-1.34033 0.468702,-2.35174 0.476926,-1.01963 1.323879,-1.58701 0.846954,-0.5756 1.965262,-0.5756 0.567377,0 1.068971,0.16446 0.501594,0.15623 0.904513,0.4687 0.411143,0.31247 0.69072,0.79762 h 0.01645 v -4.82682 h 1.735021 v 12.25205 h -1.70213 v -1.32388 h -0.01645 q -0.296022,0.5016 -0.707165,0.83873 -0.411143,0.32892 -0.912737,0.49338 -0.501593,0.16445 -1.06897,0.16445 z m 0.353582,-1.49656 q 0.740057,0 1.282765,-0.37003 0.550931,-0.37825 0.846954,-1.06074 0.304246,-0.6825 0.304246,-1.58701 0,-0.92096 -0.304246,-1.59524 -0.296023,-0.68249 -0.846954,-1.05252 -0.542708,-0.37825 -1.282765,-0.37825 -0.698942,0 -1.233427,0.34536 -0.526263,0.34536 -0.830508,1.01963 -0.296023,0.67427 -0.296023,1.66102 0,0.97852 0.296023,1.65279 0.304245,0.66605 0.830508,1.01963 0.534485,0.34536 1.233427,0.34536 z m 9.719411,1.52123 q -1.290988,0 -2.22017,-0.58382 -0.92096,-0.58382 -1.422554,-1.60346 -0.493371,-1.02785 -0.493371,-2.33529 0,-1.3321 0.51804,-2.35173 0.51804,-1.02786 1.430776,-1.61168 0.912737,-0.59205 2.096827,-0.59205 0.92096,0 1.661017,0.32892 0.748279,0.32891 1.282764,0.9374 0.534486,0.60027 0.822286,1.43078 0.287799,0.83051 0.287799,1.84192 v 0.4687 h -7.318338 v -1.31566 h 6.405602 l -0.764725,0.40292 q 0,-0.80584 -0.2878,-1.39788 -0.2878,-0.60027 -0.822285,-0.92096 -0.526263,-0.32892 -1.249874,-0.32892 -0.715388,0 -1.24165,0.32892 -0.526263,0.32069 -0.822286,0.92096 -0.287799,0.59204 -0.287799,1.39788 v 0.74828 q 0,0.82229 0.287799,1.45545 0.2878,0.62493 0.830508,0.97852 0.550931,0.35358 1.332102,0.35358 0.567377,0 1.003188,-0.17268 0.435811,-0.1809 0.723611,-0.49337 0.2878,-0.31247 0.411143,-0.72361 h 1.669239 q -0.156234,0.83873 -0.698943,1.48011 -0.534485,0.63316 -1.348547,0.99497 -0.80584,0.3618 -1.784359,0.3618 z m 13.682824,-8.88068 v 1.43078 h -5.057054 v -1.43078 z m -3.502935,8.68333 v -10.08944 q 0,-0.69072 0.2878,-1.16764 0.296023,-0.48515 0.846954,-0.74006 0.550931,-0.25491 1.332102,-0.25491 0.337137,0 0.63316,0 0.304245,0 0.402919,0 v 1.43078 q -0.08223,0 -0.345359,0 -0.263132,0 -0.427589,0 -0.534485,0 -0.764725,0.23846 -0.23024,0.23024 -0.23024,0.77295 v 9.80986 z m 8.379087,0.19735 q -1.241651,0 -2.179056,-0.5756 -0.937405,-0.5756 -1.463668,-1.59523 -0.518039,-1.01964 -0.518039,-2.35174 0,-1.34855 0.518039,-2.36818 0.526263,-1.02786 1.463668,-1.60346 0.937405,-0.58382 2.179056,-0.58382 1.241651,0 2.170833,0.58382 0.937405,0.5756 1.455445,1.60346 0.526262,1.01963 0.526262,2.36818 0,1.3321 -0.526262,2.35174 -0.51804,1.01963 -1.455445,1.59523 -0.929182,0.5756 -2.170833,0.5756 z m 0,-1.49656 q 0.740057,0 1.274542,-0.37003 0.542708,-0.37825 0.830508,-1.06074 0.296023,-0.6825 0.296023,-1.59524 0,-0.9374 -0.296023,-1.6199 -0.2878,-0.6825 -0.830508,-1.06075 -0.534485,-0.37825 -1.274542,-0.37825 -0.740057,0 -1.282765,0.37825 -0.534485,0.37003 -0.830508,1.06075 -0.2878,0.6825 -0.2878,1.6199 0,0.92096 0.2878,1.60346 0.296023,0.67427 0.830508,1.05252 0.534485,0.37003 1.282765,0.37003 z m 5.690215,1.29921 v -8.68333 h 1.661016 v 1.40611 h 0.03289 q 0.238463,-0.71539 0.74828,-1.11009 0.518039,-0.40292 1.348547,-0.40292 0.197349,0 0.361806,0.0164 0.17268,0.008 0.271354,0.0247 v 1.6199 q -0.09867,-0.0247 -0.353583,-0.0493 -0.254908,-0.0329 -0.559154,-0.0329 -0.485148,0 -0.896291,0.22202 -0.402919,0.22202 -0.641382,0.68249 -0.238463,0.46048 -0.238463,1.17587 v 5.13106 z m 9.867422,0 v -12.25205 h 2.573753 l 2.746433,7.17855 q 0.106897,0.30425 0.263131,0.74828 0.156234,0.44404 0.320691,0.92918 0.164457,0.48515 0.304246,0.92096 0.148011,0.43582 0.238462,0.71539 h -0.435811 q 0.09045,-0.27957 0.23024,-0.71539 0.139789,-0.43581 0.304246,-0.92096 0.164457,-0.48514 0.320691,-0.92918 0.156234,-0.44403 0.254908,-0.74828 l 2.705318,-7.17855 h 2.581976 v 12.25205 h -1.792582 v -6.67695 q 0,-0.40292 0,-0.88807 0.0082,-0.49337 0.02467,-1.02786 0.01645,-0.53448 0.02467,-1.07719 0.01645,-0.54271 0.02467,-1.0443 h 0.238463 q -0.197349,0.60026 -0.40292,1.19231 -0.197349,0.58382 -0.378251,1.11831 -0.180903,0.52626 -0.337137,0.97029 -0.148012,0.43582 -0.271354,0.75651 l -2.581976,6.67695 H 92.01462 l -2.606644,-6.67695 q -0.123343,-0.32069 -0.279577,-0.75651 -0.156234,-0.44403 -0.34536,-0.97029 -0.180902,-0.53449 -0.394697,-1.11831 -0.205571,-0.59205 -0.419365,-1.19231 h 0.312468 q 0.0082,0.50159 0.01645,1.0443 0.01645,0.54271 0.02467,1.07719 0.01644,0.53449 0.02467,1.02786 0.0082,0.48515 0.0082,0.88807 v 6.67695 z m 18.213618,0.19735 q -1.29099,0 -2.22017,-0.58382 -0.92096,-0.58382 -1.42256,-1.60346 -0.49337,-1.02785 -0.49337,-2.33529 0,-1.3321 0.51804,-2.35173 0.51804,-1.02786 1.43078,-1.61168 0.91274,-0.59205 2.09683,-0.59205 0.92096,0 1.66101,0.32892 0.74828,0.32891 1.28277,0.9374 0.53448,0.60027 0.82228,1.43078 0.2878,0.83051 0.2878,1.84192 v 0.4687 h -7.31834 v -1.31566 h 6.40561 l -0.76473,0.40292 q 0,-0.80584 -0.2878,-1.39788 -0.2878,-0.60027 -0.82228,-0.92096 -0.52627,-0.32892 -1.24988,-0.32892 -0.71539,0 -1.24165,0.32892 -0.52626,0.32069 -0.82228,0.92096 -0.2878,0.59204 -0.2878,1.39788 v 0.74828 q 0,0.82229 0.2878,1.45545 0.2878,0.62493 0.8305,0.97852 0.55094,0.35358 1.33211,0.35358 0.56737,0 1.00318,-0.17268 0.43582,-0.1809 0.72362,-0.49337 0.28779,-0.31247 0.41114,-0.72361 h 1.66924 q -0.15624,0.83873 -0.69895,1.48011 -0.53448,0.63316 -1.34854,0.99497 -0.80584,0.3618 -1.78436,0.3618 z m 7.19499,-5.19684 v 4.99949 h -1.73502 v -8.68333 h 1.70213 v 2.15439 h -0.40292 q 0.42759,-1.16765 1.18409,-1.74325 0.76473,-0.58382 1.84192,-0.58382 0.89629,0 1.60346,0.3947 0.71539,0.38647 1.12653,1.1512 0.41114,0.76472 0.41114,1.89948 v 5.41063 h -1.73502 v -5.19684 q 0,-1.0443 -0.50159,-1.57056 -0.49338,-0.53449 -1.39789,-0.53449 -0.59204,0 -1.06897,0.23846 -0.4687,0.23847 -0.74828,0.74828 -0.27958,0.50982 -0.27958,1.31566 z m 10.8295,5.17217 q -0.88806,0 -1.60345,-0.38647 -0.71539,-0.3947 -1.12653,-1.15942 -0.41115,-0.77295 -0.41115,-1.89948 v -5.41064 h 1.73503 v 5.19684 q 0,1.03608 0.50159,1.57057 0.50159,0.53448 1.40611,0.53448 0.58382,0 1.05252,-0.23846 0.47693,-0.23846 0.75651,-0.74828 0.27957,-0.51804 0.27957,-1.31566 v -4.99949 h 1.73502 v 8.68333 h -1.70213 v -2.15438 h 0.40292 q -0.41936,1.15942 -1.18409,1.74324 -0.7565,0.58382 -1.84192,0.58382 z"
         id="slide_text"
         style="font-size:16.8404px;line-height:1.25;font-family:'Adwaita Sans';-inkscape-font-specification:'Adwaita Sans, @opsz=32,wght=500';font-variation-settings:'opsz' 32, 'wght' 500;fill:#ffffff;stroke-width:0.0877103"
         aria-label="Slide for Menu" />
    </g>
  </g>
</svg>
