<?xml version="1.0" encoding="UTF-8" standalone="no"?>
<!-- Created with Inkscape (http://www.inkscape.org/) -->

<svg
   width="115.21686mm"
   height="115.21686mm"
   viewBox="0 0 115.21686 115.21686"
   version="1.1"
   id="svg1"
   sodipodi:docname="unlock_slider_path.svg"
   inkscape:version="1.4.3 (0d15f75042, 2025-12-25)"
   xml:space="preserve"
   xmlns:inkscape="http://www.inkscape.org/namespaces/inkscape"
   xmlns:sodipodi="http://sodipodi.sourceforge.net/DTD/sodipodi-0.dtd"
   xmlns:xlink="http://www.w3.org/1999/xlink"
   xmlns="http://www.w3.org/2000/svg"
   xmlns:svg="http://www.w3.org/2000/svg"><sodipodi:namedview
     id="namedview1"
     pagecolor="#ffffff"
     bordercolor="#cccccc"
     borderopacity="1"
     inkscape:showpageshadow="0"
     inkscape:pageopacity="1"
     inkscape:pagecheckerboard="0"
     inkscape:deskcolor="#d1d1d1"
     inkscape:document-units="mm"
     inkscape:zoom="1.4286771"
     inkscape:cx="102.89239"
     inkscape:cy="222.58354"
     inkscape:window-width="2560"
     inkscape:window-height="1362"
     inkscape:window-x="0"
     inkscape:window-y="0"
     inkscape:window-maximized="1"
     inkscape:current-layer="layer1" /><defs
     id="defs1"><rect
       x="160.98151"
       y="139.22725"
       width="275.55392"
       height="254.52481"
       id="rect2" /><inkscape:path-effect
       effect="fillet_chamfer"
       id="path-effect1"
       is_visible="true"
       lpeversion="1"
       nodesatellites_param="F,0,0,1,0,0,0,1 @ F,0,0,1,0,0,0,1 @ F,0,0,1,0,0,0,1 @ F,0,0,1,0,0,0,1 @ F,0,0,1,0,0,0,1 @ F,0,0,1,0,0,0,1 @ F,0,0,1,0,0,0,1 @ F,0,0,1,0,0,0,1"
       radius="0"
       unit="px"
       method="auto"
       mode="F"
       chamfer_steps="1"
       flexible="false"
       use_knot_distance="true"
       apply_no_radius="true"
       apply_with_radius="true"
       only_selected="false"
       hide_knots="false" /><linearGradient
       id="linearGradient1"
       inkscape:collect="always"><stop
         style="stop-color:#494688;stop-opacity:1;"
         offset="0"
         id="stop1" /><stop
         style="stop-color:#7162b8;stop-opacity:1;"
         offset="1"
         id="stop2" /></linearGradient><rect
       x="160.98151"
       y="139.22725"
       width="275.55392"
       height="254.52481"
       id="rect2-4" /><inkscape:path-effect
       effect="fillet_chamfer"
       id="path-effect1-8"
       is_visible="true"
       lpeversion="1"
       nodesatellites_param="F,0,0,1,0,0,0,1 @ F,0,0,1,0,0,0,1 @ F,0,0,1,0,0,0,1 @ F,0,0,1,0,0,0,1 @ F,0,0,1,0,0,0,1 @ F,0,0,1,0,0,0,1 @ F,0,0,1,0,0,0,1 @ F,0,0,1,0,0,0,1"
       radius="0"
       unit="px"
       method="auto"
       mode="F"
       chamfer_steps="1"
       flexible="false"
       use_knot_distance="true"
       apply_no_radius="true"
       apply_with_radius="true"
       only_selected="false"
       hide_knots="false" /><linearGradient
       inkscape:collect="always"
       xlink:href="#linearGradient1"
       id="linearGradient13"
       x1="49.296333"
       y1="148.49998"
       x2="164.51318"
       y2="148.49998"
       gradientUnits="userSpaceOnUse"
       gradientTransform="translate(-1.904762,2.05e-5)" /></defs><g
     inkscape:label="Layer 1"
     inkscape:groupmode="layer"
     id="layer1"
     transform="translate(-47.391361,-90.891549)"><g
       id="gear"><path
         id="gear_shape"
         style="fill:url(#linearGradient13);fill-opacity:1;fill-rule:evenodd;stroke:#ff6900;stroke-width:2;stroke-linecap:round;stroke-opacity:1"
         inkscape:transform-center-x="-0.66672839"
         inkscape:transform-center-y="-5.7802855"
         d="m 95.496497,91.891549 -1.149284,12.171871 a 45.047619,45.047619 0 0 0 -6.846094,2.3089 45.047619,45.047619 0 0 0 -5.172294,2.45825 l -9.694499,-8.02174 -7.191292,7.19181 -7.191292,7.1913 7.794356,9.41906 a 45.047619,45.047619 0 0 0 -3.212207,6.48177 45.047619,45.047619 0 0 0 -1.915129,5.38727 l -12.527401,1.18288 v 10.17043 10.16993 l 12.171867,1.14928 a 45.047619,45.047619 0 0 0 2.305803,6.83834 45.047619,45.047619 0 0 0 2.461348,5.18005 l -8.021732,9.6945 7.191809,7.19129 7.191292,7.19129 9.419063,-7.79384 a 45.047619,45.047619 0 0 0 6.462655,3.20342 45.047619,45.047619 0 0 0 5.406905,1.92392 l 1.182874,12.52688 h 10.170435 10.16993 l 1.14928,-12.17187 a 45.047619,45.047619 0 0 0 6.83472,-2.30425 45.047619,45.047619 0 0 0 5.18367,-2.4629 l 9.69398,8.02174 7.19181,-7.19181 7.19129,-7.1913 -7.79436,-9.41906 a 45.047619,45.047619 0 0 0 3.20601,-6.46834 45.047619,45.047619 0 0 0 1.92133,-5.4007 l 12.52688,-1.18288 v -10.17043 -10.16993 l -12.17135,-1.14928 a 45.047619,45.047619 0 0 0 -2.31097,-6.85178 45.047619,45.047619 0 0 0 -2.45669,-5.16661 l 8.02173,-9.6945 -7.19129,-7.19129 -7.1913,-7.19129 -9.41958,7.79384 a 45.047619,45.047619 0 0 0 -6.49366,-3.21686 45.047619,45.047619 0 0 0 -5.37538,-1.90996 l -1.18287,-12.527401 h -10.17044 z m 9.503293,46.608521 a 10,10 0 0 1 10.00043,9.99991 10,10 0 0 1 -10.00043,9.99991 10,10 0 0 1 -9.999904,-9.99991 10,10 0 0 1 9.999904,-9.99991 z" /><path
         d="m 81.546399,149.61882 v -7.24191 h -4.827938 v 7.24191 z m -12.069844,12.06984 v -24.13969 h 19.31175 v 12.06985 h -2.413969 v 4.82793 h 2.413969 v 7.24191 h -7.241906 v -7.24191 h -4.827938 v 7.24191 z"
         id="r_letter"
         style="font-size:38.6235px;line-height:1.25;font-family:Cosimo;-inkscape-font-specification:'Cosimo, Normal';fill:#ff6900;stroke-width:0.0905108"
         transform="scale(1.0075341,0.99252224)"
         aria-label="r&#10;" /><path
         d="m 120.09519,161.68851 v -24.13938 h 19.3115 v 4.82788 H 127.337 v 7.24181 h 9.65575 v 4.82787 H 127.337 v 2.41394 h 12.06969 v 4.82788 z"
         id="e_letter"
         style="font-size:38.623px;line-height:1.25;font-family:Cosimo;-inkscape-font-specification:'Cosimo, Normal';fill:#ff6900;stroke-width:0.0905095"
         transform="scale(1.0075341,0.99252224)"
         aria-label="e" /></g></g></svg>
